/* XPM */
static char *_5aee90a4d65412fd7f4f00d08307e46[] = {
/* columns rows colors chars-per-pixel */
"32 32 222 2 ",
"   c #B17C2C",
".  c #BF8125",
"X  c #B78335",
"o  c #BD8D3C",
"O  c #C3892E",
"+  c #C88B2D",
"@  c #C48B31",
"#  c #C88F35",
"$  c #CC9233",
"%  c #CA943B",
"&  c #D29937",
"*  c #D19A3B",
"=  c #BE9246",
"-  c #BB9355",
";  c #9D8E79",
":  c #9F9275",
">  c #A2916F",
",  c #BD9B64",
"<  c #BC9B6A",
"1  c #A89872",
"2  c #B69E75",
"3  c #BEA57E",
"4  c #C99646",
"5  c #C69945",
"6  c #CB9A44",
"7  c #C69C4C",
"8  c #D59F41",
"9  c #CA9D52",
"0  c #C99E5B",
"q  c #D4A043",
"w  c #DAA647",
"e  c #D4A54C",
"r  c #D8A64A",
"t  c #DBAA4D",
"y  c #C9A051",
"u  c #CDA35A",
"i  c #D0A751",
"p  c #DAAC54",
"a  c #D5AC59",
"s  c #DBAF59",
"d  c #DCB35D",
"f  c #EBBB54",
"g  c #E1B75B",
"h  c #E9BC5C",
"j  c #C19A63",
"k  c #CAA861",
"l  c #C1A96C",
"z  c #D3AC67",
"x  c #D8AF63",
"c  c #DCB962",
"v  c #D6B76B",
"b  c #DEB36E",
"n  c #DAB869",
"m  c #C1A972",
"M  c #C2A678",
"N  c #D1AF70",
"B  c #D0AF7F",
"V  c #D4B277",
"C  c #DAB672",
"Z  c #E4BD66",
"A  c #E9BE62",
"S  c #E1B16C",
"D  c #E6BE6C",
"F  c #E5BF72",
"G  c #EBC164",
"H  c #E9C36F",
"J  c #F5CB66",
"K  c #F4CC6A",
"L  c #E2DF6D",
"P  c #E6C375",
"I  c #E9C373",
"U  c #E3C27B",
"Y  c #E8C479",
"T  c #EECD7B",
"R  c #E4E069",
"E  c #9B9B98",
"W  c #A99B88",
"Q  c #AEA283",
"!  c #BBA686",
"~  c #BEAF95",
"^  c #BFB09C",
"/  c #ACA9A5",
"(  c #AFADA9",
")  c #BBB2A4",
"_  c #B3B2AD",
"`  c #BDB6AE",
"'  c #B6B6B5",
"]  c #B9B7B4",
"[  c #BAB9B7",
"{  c #B6B8BE",
"}  c #BCBCBC",
"|  c #C4AD82",
" . c #CEAF81",
".. c #C6AD8C",
"X. c #C5B28D",
"o. c #CCB28B",
"O. c #D9BD87",
"+. c #D4B78D",
"@. c #D4BA8E",
"#. c #C0AD91",
"$. c #C6B090",
"%. c #CCB595",
"&. c #C6B699",
"*. c #CBB69A",
"=. c #C7BB9E",
"-. c #CEBA9E",
";. c #D6BE96",
":. c #D3BB99",
">. c #D9BD98",
",. c #C2B5A4",
"<. c #CDBDA3",
"1. c #C6BBAA",
"2. c #CABCA9",
"3. c #C5BDB2",
"4. c #D9D783",
"5. c #CFCE98",
"6. c #DCC594",
"7. c #D4D394",
"8. c #DAD894",
"9. c #D5D49C",
"0. c #DCDA9C",
"q. c #E3C583",
"w. c #E6C788",
"e. c #E3CA8D",
"r. c #EBCF88",
"t. c #F0CF86",
"y. c #EACA9E",
"u. c #EAE795",
"i. c #CFCEA3",
"p. c #CEC4AE",
"a. c #CDCCAD",
"s. c #D4C4A7",
"d. c #D8C3A6",
"f. c #DBC9A4",
"g. c #D4C2AA",
"h. c #DECCAD",
"j. c #D4D3A1",
"k. c #D8D6A2",
"l. c #D6D5AE",
"z. c #D8D6AA",
"x. c #DDDBAB",
"c. c #C9C1B5",
"v. c #CFCEB3",
"b. c #C3C1BD",
"n. c #D3C7B7",
"m. c #D5CAB4",
"M. c #D9CCB4",
"N. c #D0C6B9",
"B. c #D7CCBF",
"V. c #DBCEBB",
"C. c #D3D3B6",
"Z. c #D9D8B2",
"A. c #D2D1BC",
"S. c #DCD0BD",
"D. c #DADABE",
"F. c #E4D1A2",
"G. c #E0DFB0",
"H. c #E1D4B8",
"J. c #EADBBD",
"K. c #E1E0AE",
"L. c #E1E0BB",
"P. c #E8E6BD",
"I. c #B6BBC3",
"U. c #BDBFC3",
"Y. c #BCC0C9",
"T. c #C4C5C4",
"R. c #CBC7C1",
"E. c #CCCDC2",
"W. c #C2C4CA",
"Q. c #C7C9CE",
"!. c #CACBCC",
"~. c #D4CDC2",
"^. c #D0CFCE",
"/. c #D5D3C5",
"(. c #DBD2C5",
"). c #DCDCC4",
"_. c #D6D7C9",
"`. c #DAD3C9",
"'. c #DDDBCC",
"]. c #C7CAD1",
"[. c #CCCDD2",
"{. c #C8CDD8",
"}. c #CCD0D8",
"|. c #D2D3D5",
" X c #D9D6D1",
".X c #DDDAD5",
"XX c #D3D5DA",
"oX c #D7D9DB",
"OX c #DBDCDC",
"+X c #E3D6C5",
"@X c #E3D9C9",
"#X c #E1DDD5",
"$X c #E0DFDC",
"%X c #E4E3C5",
"&X c #E0E0C8",
"*X c #EAE9CD",
"=X c #F0E2C5",
"-X c #F3E6C9",
";X c #E4E2D4",
":X c #E9E9D5",
">X c #E5E3DA",
",X c #EBEBDF",
"<X c #F0EFD9",
"1X c #D6DAE1",
"2X c #DADEE3",
"3X c #DFE0E2",
"4X c #DDE2E9",
"5X c #E3E4E4",
"6X c #ECEBE4",
"7X c #E4E6E9",
"8X c #E6E9ED",
"9X c #EBECEC",
"0X c #F0EFEF",
"qX c #F0F0ED",
"wX c #ECEEF1",
"eX c #EFF0F0",
"rX c #EAF0FA",
"tX c #F2F2F4",
"yX c #F6F6F9",
"uX c #F6F9FE",
"iX c #F9FBFF",
"pX c None",
/* pixels */
"pXpXpXpXpXpXpXpXpXpXpXpXpXpXpXpXpXpXpXpXpXpXpXpXpXpXpXpXpXpXpXpX",
"pXpXpXpXpXpXpXpXpXpXpXpX6XqX0XtXtXtXqX6XpXpXpXpXpXpXpXpXpXpXpXpX",
"pXpXpXpXpXpXpXpXpX#X>X5X6X9X0XtXtXtXqX6X6X:X*XpXpXpXpXpXpXpXpXpX",
"pXpXpXpXpXpXpX+X X#X>X>X6X9X9XtXtXtXqX6X,X:X;X>XP.pXpXpXpXpXpXpX",
"pXpXpXpXpXpX~.`.+X#XOX3X7X9X9XtXtXqX9X8X6X5X>X%X&X).pXpXpXpXpXpX",
"pXpXpXpXpXR.V.+X|.oXOX5X7X7XeXtXtXeXqX8X5X5X3X.X%XL._.pXpXpXpXpX",
"pXpXpXpX3.h.B.[.|.oXOX3X5X9XeXtXtXeXwX8X7X5X2X2XoX).G./.pXpXpXpX",
"pXpXpX3.g.n.Q.[.|.oXOX5X7X6X9XeXtXeX9X9X6X5X3XOXoXXXD.x.C.pXpXpX",
"pXpX:.2.d.W.!.[.|.oXOX5X7X;XY e.OXw.N ^.7X5X5XOXoXoX|.x.l.0.pXpX",
"pXpX` >.U.W.Q.[.|.oX X5X9X.Xh n b.Z 5 ' 9X5X3X2X XoX[.^.0.v.pXpX",
"pX%.-.2.U.T.Q.}.~.+./.7X5Xf.A K Y h 7 { wXV.;..X1XoX|.[.C.k.7.pX",
"pX) +.} U.W.!.6.p g.4X Xz t g l m k q 3 2X8X@.p h.XX|.[.^.8.a.pX",
"S ^ %.I.U.p.T f O.1XoX0 & t : Y.oX[.| $ ! 4X3XC f r.~.|.Q.j.i.R ",
"B $.,.I.%.A J A ~.2X%.O q - I.uXuXuX4X9 X } 8Xh.h K Z p.{.a.7.4.",
"..o.` M w h K Y XX1X, O 8 , V.-X=XJ.S.u . W 4X'.G K h r *.E.7.7.",
"#.o., $ t A J q.XXXX- O 6 y a c c i 5 o   ; 2XOXI K h r # X.7.5.",
"#.o.! % r A J q.XXoX< @ = E [ [ [ ] _ ( / U.3XOXH K h q 4 =.7.5.",
"..o.] ~ t h K F |.1X,.@ * &.rXuXyXtXtXeX9X5X3X`.G K h s c.E.7.7.",
"B ..,.I.1.D J h m.1XXX< & p f.9XtX9X>X5X6X5X4Xf.h J U E.{.v.7.4.",
"S &.%.I.U.R.e.f C oX5XQ.2 i h T t.H u T.8X7X.Xs h F.|.[.].j.i.L ",
"pX) +.{ U.W.[.m.x @.2X5X1X) A Z 1 d 7 ' 9X3XV C `.XX|.[.!.8.a.pX",
"pX&.%.2.U.T.Q.}.|.g./.3X8X#XA v { F 7 [ 9XS.V.3X1X|.|.[.C.9.9.pX",
"pXpX` >.U.T.!.^.|.1XoX5X7X#XA n T.H 5 [ 9X7X3XOXoXoX|.[.0.v.pXpX",
"pXpX<.<.g.W.Q.[.|.oXoX5X6X5X$.Q |.<.> T.8X5X3X2XoX|.|.Z.z.k.pXpX",
"pXpXpX3.d.N.Q.[.|.oXOX3X7X9X7X3XtX8X2X5X7X5X3X3XoXoX).x.A.pXpXpX",
"pXpXpXpXb.h.~.[.|.oXOX3X>X9X0XyXtXeXqX9X7X5X3XOXoX).K.~.pXpXpXpX",
"pXpXpXpXy.R.V.(.|.oX2X3X7X9X9XtXtXeX9X9X5X5X3XOX&XL.`.u.pXpXpXpX",
"pXpXpXpXpXpX~.(.@X#XOX5X7X9X9XtXtXeXqX9X7X5X>X%X&X).pXpXpXpXpXpX",
"pXpXpXpXpXpXpX+X X#X>X>X7X9XqXtXtXqXqX8X,X:X;X#X%XpXpXpXpXpXpXpX",
"pXpXpXpXpXpXpXpXpX#X$X>X6X9XeXtXtXtXqX6X6X,X*XpXpXpXpXpXpXpXpXpX",
"pXpXpXpXpXpXpXpXpXpXpX,X6X9XqXtXtXtXqX6X<XpXpXpXpXpXpXpXpXpXpXpX",
"pXpXpXpXpXpXpXpXpXpXpXpXpXpXpXpXpXpXpXpXpXpXpXpXpXpXpXpXpXpXpXpX"
};
