/* XPM */
static char *f2ac5ac8e125419e8834f56ea9f84ec4[] = {
/* columns rows colors chars-per-pixel */
"16 16 179 2 ",
"   c #BE9A5B",
".  c #B79665",
"X  c #BFA77C",
"o  c #C69743",
"O  c #C39249",
"+  c #C99F53",
"@  c #C59B59",
"#  c #C89C5C",
"$  c #D3A552",
"%  c #E1AC45",
"&  c #E5B148",
"*  c #C8A66B",
"=  c #C9A96D",
"-  c #DAB566",
";  c #DDB86A",
":  c #C3AB7E",
">  c #C5AC7E",
",  c #D6B771",
"<  c #D8B873",
"1  c #DABA76",
"2  c #DEBA75",
"3  c #D4B278",
"4  c #D7B17B",
"5  c #D8B17A",
"6  c #E4BD65",
"7  c #E2BE6B",
"8  c #DDDA7B",
"9  c #DEDB7A",
"0  c #EFC360",
"q  c #EFC563",
"w  c #EFC567",
"e  c #EFC76B",
"r  c #EFCA74",
"t  c #EBCB7F",
"y  c #B4A38A",
"u  c #BEB09A",
"i  c #BCB3A5",
"p  c #BEB8B1",
"a  c #C6AE88",
"s  c #C5AF8F",
"d  c #CAAF89",
"f  c #C6B387",
"g  c #CBB280",
"h  c #CBB089",
"j  c #CCB78F",
"k  c #DCBE82",
"l  c #CCB790",
"z  c #CEBB91",
"x  c #CCBE9A",
"c  c #DABE96",
"v  c #D9BD98",
"b  c #C7B8A4",
"n  c #C8B8A4",
"m  c #DEC387",
"M  c #DBC18F",
"N  c #D5D48F",
"B  c #D8C197",
"V  c #DAC494",
"C  c #DDC596",
"Z  c #D9C59F",
"A  c #DFDC97",
"S  c #D2D39B",
"D  c #E2C993",
"F  c #E0DD94",
"G  c #CAC3AE",
"H  c #D1C4A5",
"J  c #DFCBA2",
"K  c #D8C7AF",
"L  c #DAC8AD",
"P  c #D3D2AC",
"I  c #D3D2AD",
"U  c #DFDEAF",
"Y  c #CAC3B8",
"T  c #CBC3B8",
"R  c #CAC7B8",
"E  c #CEC9BF",
"W  c #CDCEBD",
"Q  c #CDCFBE",
"!  c #D5C9B8",
"~  c #D3CBBC",
"^  c #D3CDBF",
"/  c #E1DFAC",
"(  c #E2D3BF",
")  c #E4D4BE",
"_  c #E8DBBF",
"`  c #E8E5B6",
"'  c #E6E4B9",
"]  c #C1C2C4",
"[  c #C1C2C5",
"{  c #C2C3C4",
"}  c #C0C3C8",
"|  c #CACBCF",
" . c #CACCCF",
".. c #D3CEC5",
"X. c #D3CEC6",
"o. c #D4CEC5",
"O. c #D5D5C1",
"+. c #D6D5C1",
"@. c #D9D2C0",
"#. c #DED5C3",
"$. c #DBD3C5",
"%. c #DFD6C6",
"&. c #DAD5CB",
"*. c #DBD7CF",
"=. c #DBDBCB",
"-. c #DBDBCD",
";. c #C9CCD3",
":. c #C8CDD4",
">. c #CFD1D1",
",. c #CFD1D2",
"<. c #CFD1D9",
"1. c #D0D0D3",
"2. c #D5D3D0",
"3. c #D6D5D1",
"4. c #D0D1D5",
"5. c #D5D5D6",
"6. c #D5D5D7",
"7. c #DAD8D1",
"8. c #DDD8D2",
"9. c #DED9D2",
"0. c #D4D6DA",
"q. c #D4D6DB",
"w. c #D6D7DA",
"e. c #D6D9DE",
"r. c gray85",
"t. c #DDDEDE",
"y. c gray87",
"u. c #E3DAC8",
"i. c #E6DDCB",
"p. c #E3E3D3",
"a. c #E4E3D2",
"s. c #EDECD7",
"d. c #EEEDD6",
"f. c #E4E1DA",
"g. c #E1E0DE",
"h. c #E0E0DF",
"j. c #E4E2DE",
"k. c #EBE6DC",
"l. c #EAE6DD",
"z. c #D5D8E0",
"x. c #DCDEE0",
"c. c #DDDEE0",
"v. c #DDDFE2",
"b. c #DEDFE2",
"n. c #DDDFE4",
"m. c #DFE0E1",
"M. c #DEE0E2",
"N. c #E0E1E3",
"B. c #E6E6E1",
"V. c #E6E5E3",
"C. c #E6E6E2",
"Z. c #E5E5E4",
"A. c #E4E5E6",
"S. c #E4E5E7",
"D. c #E4E6E7",
"F. c #E1E4EA",
"G. c #E5E7E9",
"H. c #E7E7E9",
"J. c #E4E6EA",
"K. c #E7E8E8",
"L. c #ECEBE9",
"P. c #EEEFE8",
"I. c #EFEFE8",
"U. c #ECECEB",
"Y. c #EBECEC",
"T. c #F3EEE1",
"R. c #E3E8F1",
"E. c #EEEEF0",
"W. c #EDEFF2",
"Q. c #F0F0F1",
"!. c #F1F1F1",
"~. c #F1F2F2",
"^. c #F2F2F3",
"/. c #F2F3F3",
"(. c #F2F3F7",
"). c #F3F5F7",
"_. c #F1F3F8",
"`. c #F2F5F8",
"'. c None",
/* pixels */
"'.'.'.'.'.'.'.'.'.'.'.'.'.'.'.'.",
"'.'.'.'.'.k.L.!.!.I.d.'.'.'.'.'.",
"'.'.'.) 8.g.K.E.!.Y.C.a.` '.'.'.",
"'.'.L X.5.b.K._.`.W.D.y.=./ '.'.",
"'.c Y | q.b.V._ i.%.J.M.w.+.F '.",
"'.n { ;.~ b.u.6 - > M.$.z.1.P '.",
"5 p { m Z ! $ f H * o.C D 4.Q 9 ",
"h u ; e 2.# o @.T.3 . 7.q 2 G N ",
"s @ & t 1.O   x z X y r.r % = S ",
"h i 1 w 3.a + f.E.D.R.%.0 k R N ",
"3 p } V B e.j 7 < l J.M J <.W 8 ",
"'.n ] ;...y.j., g : M.*.z.>.I '.",
"'.v Y | 0.M.D.o.&...J.b.w.+.A '.",
"'.'.K X.5.y.D./.W.E.D.y.-.U '.'.",
"'.'.'.#.8.N.K.Q.!.Y.V.p.' '.'.'.",
"'.'.'.'.'.l.L.!./.P.d.'.'.'.'.'."
};
