/* XPM */
static char *f08e33aba9c54c7fa6314c83e5c9f7ea[] = {
/* columns rows colors chars-per-pixel */
"64 64 256 2 ",
"   c #797976",
".  c #B97D29",
"X  c #AF7B32",
"o  c #927A56",
"O  c #927851",
"+  c #A67C43",
"@  c #877B64",
"#  c #BD812A",
"$  c #BD8027",
"%  c #BC8637",
"&  c #C4882D",
"*  c #C48C35",
"=  c #C88E32",
"-  c #C18D39",
";  c #C7903A",
":  c #CB953B",
">  c #CE983D",
",  c #CB9235",
"<  c #D29C3D",
"1  c #D19934",
"2  c #98835B",
"3  c #B78E56",
"4  c #B79555",
"5  c #B18C51",
"6  c #968666",
"7  c #95876A",
"8  c #9B8A68",
"9  c #8A857A",
"0  c #9D927A",
"q  c #BB9B69",
"w  c #A29271",
"e  c #AB9A79",
"r  c #AC9672",
"t  c #B3A17F",
"y  c #CF9B41",
"u  c #C6984A",
"i  c #D39E42",
"p  c #C79C53",
"a  c #D6A244",
"s  c #D9A544",
"d  c #D6A44A",
"f  c #D9A749",
"g  c #DCAA4C",
"h  c #DBA846",
"j  c #CAA15A",
"k  c #DDAE53",
"l  c #D6A955",
"z  c #DDB35B",
"x  c #E4AF56",
"c  c #E4B454",
"v  c #E6B857",
"b  c #E4B659",
"n  c #E5B95C",
"m  c #EBBD5C",
"M  c #EAB458",
"N  c #F5B252",
"B  c #C19F69",
"V  c #C9A364",
"C  c #D7AE69",
"Z  c #D8B467",
"A  c #CBAA75",
"S  c #D3AE75",
"D  c #D4AF79",
"F  c #DBB474",
"G  c #D7B37C",
"H  c #E3BA63",
"J  c #E3B26C",
"K  c #E5BA69",
"L  c #E3B674",
"P  c #E5BC76",
"I  c #F1BD74",
"U  c #E9B365",
"Y  c #EDC05E",
"T  c #EEE955",
"R  c #DEDA79",
"E  c #DFC07F",
"W  c #ECC264",
"Q  c #EAC46B",
"!  c #F5CA66",
"~  c #F3CC6C",
"^  c #F2C663",
"/  c #E3DF6A",
"(  c #E4DF64",
")  c #FAD16C",
"_  c #E7C576",
"`  c #F4C871",
"'  c #E2DE76",
"]  c #E6E268",
"[  c #E7E276",
"{  c #F3ED75",
"}  c #7A7E83",
"|  c #93918D",
" . c #949391",
".. c #8B8B8B",
"X. c #A09A90",
"o. c #B1A585",
"O. c #B8A98C",
"+. c #AFA696",
"@. c #B9AD99",
"#. c #BCB39F",
"$. c #A9AAAA",
"%. c #B4AFA7",
"&. c #BCB2A3",
"*. c #BCB5AB",
"=. c #B4B1A9",
"-. c #A9AEB4",
";. c #A2ACBB",
":. c #A6ABB3",
">. c #AEB1B5",
",. c #AAB1BC",
"<. c #B5B5B5",
"1. c #BDB9B5",
"2. c #B2B6BB",
"3. c #B6B9BD",
"4. c #BABBBE",
"5. c #BAB6B1",
"6. c #CAAE87",
"7. c #CBB28B",
"8. c #D4B383",
"9. c #D9BA87",
"0. c #C4B39B",
"q. c #CBB798",
"w. c #D3BD9C",
"e. c #D5B992",
"r. c #C1AF95",
"t. c #E5BC83",
"y. c #C5BBAC",
"u. c #CABBA5",
"i. c #D2BEA2",
"p. c #C2BEB8",
"a. c #DDC28B",
"s. c #DAD787",
"d. c #CDCC9A",
"f. c #DBC49C",
"g. c #D9C697",
"h. c #D3D29C",
"j. c #D8D694",
"k. c #E6C48A",
"l. c #E2DE89",
"z. c #E7C797",
"x. c #F7CE94",
"c. c #EAD291",
"v. c #E9E585",
"b. c #F3EF83",
"n. c #E9E597",
"m. c #F1EC91",
"M. c #CDCCAB",
"N. c #CDC7A8",
"B. c #D4C3A6",
"V. c #D4C3AB",
"C. c #DBCBAC",
"Z. c #D7C8A7",
"A. c #D4D3A3",
"S. c #D3D2AD",
"D. c #DBD9A7",
"F. c #CBC2B4",
"G. c #CCCCB3",
"H. c #CAC4BB",
"J. c #CDCCBC",
"K. c #C5C3BD",
"L. c #D4CBB1",
"P. c #DACCB3",
"I. c #D2CABA",
"U. c #D7CAB6",
"Y. c #D4D3B4",
"T. c #D4D4BC",
"R. c #DAD4B9",
"E. c #DBDBBD",
"W. c #DCDAB3",
"Q. c #EBCEA6",
"!. c #E7D4AA",
"~. c #E3CEB2",
"^. c #E4D2B5",
"/. c #E7D6BB",
"(. c #F1D7B4",
"). c #E9E6A5",
"_. c #E8E5B8",
"`. c #F1EEAD",
"'. c #AAB4C1",
"]. c #B4BAC3",
"[. c #BBBEC2",
"{. c #BBBECB",
"}. c #B3B9C4",
"|. c #BABDD3",
" X c #BFC0C4",
".X c #BEC2CB",
"XX c #BFC1D4",
"oX c #C2C3C5",
"OX c #CCCBC4",
"+X c #C3C5CA",
"@X c #C7C8CB",
"#X c #CBCCCD",
"$X c #CAC6C2",
"%X c #D4CDC4",
"&X c #DBD3C4",
"*X c #DCDCC2",
"=X c #D4D2CB",
"-X c #DBD4CA",
";X c #DCDBCB",
":X c #D3D3C4",
">X c #C6CAD3",
",X c #CCCED2",
"<X c #CBCDDB",
"1X c #C3C5D7",
"2X c #CFD0D3",
"3X c #CDD1DA",
"4X c #D3D4D5",
"5X c #DAD6D2",
"6X c #DCDAD5",
"7X c #D4D6D9",
"8X c #D7D8DA",
"9X c #DBDCDD",
"0X c #D7D8D4",
"qX c #D0CFD0",
"wX c #E2D8C5",
"eX c #EADECB",
"rX c #E6DAC7",
"tX c #E2DCD3",
"yX c #E2DFDA",
"uX c #DFE0DF",
"iX c #ECEAC4",
"pX c #EDECCD",
"aX c #E4E3C8",
"sX c #F2E6C7",
"dX c #E4E2D4",
"fX c #EBE2D4",
"gX c #EBEAD3",
"hX c #E4E2DC",
"jX c #EBE5DC",
"kX c #ECEBDC",
"lX c #F0EEDC",
"zX c #F0EFD2",
"xX c #F2F1DE",
"cX c #D6D9E1",
"vX c #DDDEE2",
"bX c #D3D6E1",
"nX c #DFE0E2",
"mX c #DFE3EA",
"MX c #E3E4E5",
"NX c #E8E7E3",
"BX c #EBEAE5",
"VX c #E6E7E9",
"CX c #E6E8ED",
"ZX c #EBECEC",
"AX c #E7E8E7",
"SX c #F0EFEB",
"DX c #F1F1ED",
"FX c #F1F1E5",
"GX c #EFEFF0",
"HX c #E5E9F0",
"JX c #EFF0F1",
"KX c #EFF3F8",
"LX c #F2F2F3",
"PX c #F2F4F9",
"IX c #F0EFF1",
"UX c None",
/* pixels */
"UXUXUXUXUXUXUXUXUXUXUXUXUXUXUXUXUXUXUXUXUXUXUXUXUXUXUXUXUXUXUXUXUXUXUXUXUXUXUXUXUXUXUXUXUXUXUXUXUXUXUXUXUXUXUXUXUXUXUXUXUXUXUXUX",
"UXUXUXUXUXUXUXUXUXUXUXUXUXUXUXUXUXUXUXUXUXUXUXUXUXUXUXUXUXUXUXUXUXUXUXUXUXUXUXUXUXUXUXUXUXUXUXUXUXUXUXUXUXUXUXUXUXUXUXUXUXUXUXUX",
"UXUXUXUXUXUXUXUXUXUXUXUXUXUXUXUXUXUXUXUXUXUXUXUXUXUXDXDXLXLXLXLXLXLXLXLXDXUXUXUXUXUXUXUXUXUXUXUXUXUXUXUXUXUXUXUXUXUXUXUXUXUXUXUX",
"UXUXUXUXUXUXUXUXUXUXUXUXUXUXUXUXUXUXUXUXUXUXlXBXAXAXAXZXZXIXLXLXLXLXLXZXZXZXZXlXlXUXUXUXUXUXUXUXUXUXUXUXUXUXUXUXUXUXUXUXUXUXUXUX",
"UXUXUXUXUXUXUXUXUXUXUXUXUXUXUXUXUXUXUXfXfXuXvXMXAXAXZXZXSXIXLXLXLXLXLXDXDXBXZXAXmXMXkXpXUXUXUXUXUXUXUXUXUXUXUXUXUXUXUXUXUXUXUXUX",
"UXUXUXUXUXUXUXUXUXUXUXUXUXUXUXUXUXeXtX9XcX9XjXjXBXSXSXSXSXIXLXLXLXLXLXDXDXFXlXlXkXkXnXnXhXiXUXUXUXUXUXUXUXUXUXUXUXUXUXUXUXUXUXUX",
"UXUXUXUXUXUXUXUXUXUXUXUXUXUXUXrX5X3X7XyXfXjXNXNXNXBXZXZXSXIXIXLXLXLXJXZXZXZXBXBXkXzXpXgXnXnXyX_.UXUXUXUXUXUXUXUXUXUXUXUXUXUXUXUX",
"UXUXUXUXUXUXUXUXUXUXUXUXUXUX/.qX2X5XeXfXfXyXyXMXMXAXAXZXGXIXIXLXLXLXJXJXJXZXVXBXMXkXkXpXiXaX9XcXaX`.UXUXUXUXUXUXUXUXUXUXUXUXUXUX",
"UXUXUXUXUXUXUXUXUXUXUXUX(.%X>XqXrXeXrXyX9XvXvXMXMXVXCXZXZXJXLXPXLXLXJXJXJXZXVXAXVXMXMXhXdXiX_.aXbX6X).UXUXUXUXUXUXUXUXUXUXUXUXUX",
"UXUXUXUXUXUXUXUXUXUXUX~.+X@X&X/.wX5X8X6X9X9XvXMXMXAXAXZXJXLXLXLXLXLXLXZXZXZXZXVXMXMXMXMXhXdXaX_._.7X3X_.UXUXUXUXUXUXUXUXUXUXUXUX",
"UXUXUXUXUXUXUXUXUXUXP.+X@X^.(.-X5X4X7X8X9X9XuXnXMXAXAXZXZXJXLXLXLXLXJXZXZXZXZXVXMXMXMXuX9XvX9XaX_.).;X3XE.b.UXUXUXUXUXUXUXUXUXUX",
"UXUXUXUXUXUXUXUXUXP..X$XQ.^.&XqX4X4X8X6X9XvXuXMXMXAXAXZXZXJXLXLXLXLXZXLXZXZXVXVXVXMXMXnXMXvX9X8XaX*X).E.<X*Xb.UXUXUXUXUXUXUXUXUX",
"UXUXUXUXUXUXUXUXV.{.H.Q.~.%X#XqX2X4X8X8X9XvXvXMXMXAXCXZXGXJXJXLXLXLXJXZXZXZXZXVXAXMXMXnX9X9X9X9X7X;X*Xn.W.<XT.{ UXUXUXUXUXUXUXUX",
"UXUXUXUXUXUXUXZ.{.p.z.~.OX#X#XqX4X4X8X8X9XvXuXuXMXAXAXZXZXJXJXLXLXLXJXJXZXZXZXAXVXMXMXvXnXnX9X6X6X7X;X*Xn.W.<XY.UXUXUXUXUXUXUXUX",
"UXUXUXUXUXUXw.}.p.z.V.$X@X#X#X2XqX0X8X8X9X9XuXMXMXAXCXZXGXJXLXLXLXLXDXJXJXZXVXAXAXVXMXMXvX9X9X9X7X0X7X=XE.n.D.1XY.UXUXUXUXUXUXUX",
"UXUXUXUXUXt.[.p.k.Z.H.+X@X#X#X2X4X4X8X8X9XvXuXMXAXAXCXAXNXNXMXZXLXLXZXMXhXAXVXVXMXMXMXnXnX9X9X9X7X7X0X7X:XE.v.W.XXn.UXUXUXUXUXUX",
"UXUXUXUX` y.'.z.f.y.@XoX@X@X#X2XqX7X7X8X8XuXuXnXMXAXHX~.K _ ~ Y.HXeXK Z l u.9XVXAXMXMXnX9X9X9X9X6X7X7X4X3XT.W.[ %X@X[ UXUXUXUXUX",
"UXUXUXUXe.}.u.t.V.[.oX@X@X@X#XqX4X7X7X9XuXuXuXMXMXAXHXf.c ^ ! O.bXW.c k h w .XMXAXMXMXnXnX9X9X9X7X7X0X4X2XqXY.D.v.1XY.UXUXUXUXUX",
"UXUXUXI <.3.t.i.K.[.+XoX@X@XqXqXqX0X7X7X9XuXnXnXMXAXCXB.v W ! o.3X^.c k f 7 ].MXMXVXMXnXnX9X9X9X8X0X4X4X2XqXOXY.l.D.XXR UXUXUXUX",
"UXUXUXe.'.e.t.y.[.oXoXoX@X#XqXqX4X4XcX9X-X8XnXMXMXMXHXB.v ^ ! o.+XL.v k f 6 3.MXVXuX6XCXnXnX9X9X8X8X3X4X3XqX,XT.D.[ +XG.UXUXUXUX",
"UXUXU >.<.L i.p.[.K.oX+X@X#X#XqX3X7XV.A V.vXnXnXMXHXnXg.m W ~ Q _ P b k f 6 3.VXAXMXB.A &XnXnX9X8X0X3X4XqXqXqX#XS.l.h.|.[ UXUXUX",
"UXUX8.,.7.t.y.}.[.[.oX+X@X@X,X2XL.C : i.nXvXnXmXMXZ.Z c n W ~ ) ! Y n k f 6 2.MXAXVXVX8., G &XcX8X7X0X4X4XqXqX>XY.A.[ +XA.UXUXUX",
"UXUX%.>.L e.5.[.[.oXoXoX@X>XOXa.g < w.vX9XvXnX6XS i f c m ! Q Z Z z b k f u +.7XMXVXnXHX8.1 g g.8X7X7X4X3XqXqX#X#XS.[ S..XT UXUX",
"UXU -.&.L 0.3.4.[. XoX@X@XZ.Q v h G cX8X9XvX0Xj , d k c m 8   .. .| 0 j f a : +.7XMXMXnXuXC f c _ ^.7X3XqXqX#X#X@XS.s.s.|.R UXUX",
"UX8.;.8.8.y.3.4.[. XXXH.k.) Y v l =X8X7XcXcXV = y d g v 2 } <.6XcX8X.X-.q i 1 - $.3XMXuXMXU.f n Y ~ c.qX3XqX,X#X>XJ.h.] +Xd.UXUX",
"UX0.-.L 7.5.3.1.{.p.e.I ~ ~ W c g.bX7X9XvX7.& ; y d x 4 } +XZXLXKXLXJXVX.XV > = % >.9XMXvXmX9.c W ~ ! _ C.,X,X#X#X$XM.' N.oXT UX",
"N $.%.J 0.2.1.{.p.Z c W ~ ~ Y H =X7X7X9X%X% * : > d g @ >.ZXLXLXLXLXDXDXCXN.: ; & 6 +XnXuXmX&Xb W ~ ~ ^ c 9.qX,X#X@XM.R s.|.( UX",
"M :.r.J 0.3.}.*.l g n W ~ ~ m a.3X4X7XvXr.. * : y d u ..3XLXLXPXKXLXKXLXHX0Xu = & + :.9XnXvX6XK H ~ ~ W n g C $X>X@XG.j.R |.' UX",
"J ;.6.J &.}.&.y i k n W ` ~ Y a.7X4X7X8Xq # - ; y f 4 | =XdXhXjXjXfXdXrX;XJ.p = & X  .,XnXvX9X_ Y ~ ~ W n k d j K.1XG.h./ {.s.UX",
"C ;.8.D =.%.; > d k n W ~ ~ Y g.3X4X7X7X3 # * : y d g z H Q ~ ` Q H b k l a > ; & X 9 #XnX9XvXa.Y ~ ~ W n k d 1 u K.J.h./ {.d.UX",
"S ;.D 8.O.% * y d k H W ~ ~ W f.7X0X8X2X3 & & : y h g c m ^ ! ) ! Y m k f a > , & X 9 oXnX9XnXa.Y ~ ~ W n k d y = u N.A./  Xd.UX",
"D ;.D 8.q # ; y d k n W ~ ~ W f.3X7X8X3X3 $ * ; y O @ 8 8 8 w w w w 8 8 2 2 o o O O | #XnXvXcXa.Y ~ ~ Q n k d y - # r.A./  Xd.UX",
"S ;.D G *.q * y d k n W ~ ~ Y g.3X0X9X3Xq . - : < 2  .2.2.2.2.2.<.2.2.>.-.-.-.:.:.-. X8XuXvXvXk.Y ~ ~ W n k d > = 6.$Xd./  Xd.UX",
"S ;.8.F *.2.B 1 d k n W ~ ~ Y a.3X7X7X8X*.% * : < 4 :.nXZXZXZXLXJXZXZXBXAXMXMXMXMXuXuXuXuXvX9XE Y ~ ~ W b k d > 7.>XJ.h./ .Xd.UX",
"C :.7.F %.}.3.A d g n W ~ ~ Y a.7X7X7X6X+X3 & : y d t ,XZXLXLXLXLXLXLXJXJXZXAXAXVXVXMXMXvXvX9XK W ~ ~ Q b k d q.>X>XG.h./ {.s.UX",
"U :.@.J 0.2.3.[.7.k n Q ~ ~ Y P 4X7X7X9X3X%.% 1 > d l #.vXLXLXLXLXLXJXJXZXZXCXAXMXMXMXnXvXuX5XU W ~ ~ W v k B.,X@X+XG.j.R |.R UX",
"N $.%.J 0.3.3.4.[.u.n Y ~ ~ W c I.7X7X9X9X>Xe = < d g k q.8XHXKXPXPXKXKXZXAXZXAXMXMXMXnXnXnXC.c H ~ ~ ^ P J.,X,X@X@XM.s.s.|./ UX",
"UX@.-.J 7.5.3.4.[..XK.a.~ ~ Q m F 7X7X7X9X9XoXe u s g c v _ !._.eX/.!.a.F u.8XAXAXMXMXnXnX6XZ c W ! ) f.qX,X,X#X#X@XA.' A.[.T UX",
"UX6.;.8.8.*.3.4.[. X.X+XL._ Y b d B.cX9X9X9X9X.XX.4 d b n W ^ ) ! m c g s w .XMXVXMXMXnXmXa.h c Y c.&X3X2XqXqX#X@XJ.A.] oXN.UXUX",
"UXJ -.0.L u.3.4.4. XoX+X@X#Xf.n h l =XvX9XuXnXuX#X$.| q Y W ! Q Z z b k h 7 ].MXCXMXMXmXT.i h K C.8X7X2X2X2X#X#X,XG.j.R |.s.UXUX",
"UXN =.>.L e.1.].4.oXoXoX@X#X,XI.F < l 8XvXvXnXMXMXnX>XO.m W ~ 8   0 b k f 7 [.MXVXMXHX;Xy y 9.5XcX7X0X3X2X,X#X,X@XS.' A.{.( UXUX",
"UXUX7.,.e.9.y.3.[. XoX@X@X@X#X3X4XL.V V 0XvXvXMXMXVXHXB.v W ~ e }.F.b k d 8 [.VXAXVX&Xj S &XvXcX7X7X4X4X2XqX,X#XJ.A.[ +XG.UXUXUX",
"UXUXI >.5.I q.[.[.oXoXoX@X#X#XqX2X7XcXL.B.9XvXMXMXAXHXC.v W ~ o.<XwXb k d 7 [.AXAXuXi.-XVXmX9X8X6X7X0X4X2X2XqX#XS.l.j.XXl.UXUXUX",
"UXUXUX0.'.9.e.y.[.[.oX@X@X@XqXqX4X4X7X9XvX9X9XMXMXAXHXC.v W ~ o.3X*Xb k f 7 ].MXVXMXVXMXuX9X9X9X6X7X4X4X2XqX,XJ.D.[ oXJ.T UXUXUX",
"UXUXUXI ,.5.t.i.p.+XoXoX@X#X,X,X4X7X7X7X9X9XuXMXMXAXHXL.m W ~ o.3X*Xb x h 7 ].AXMXVXMXvXvX9X9X8X8X7X0X4X2XqXqXY.l.j.XXl.UXUXUXUX",
"UXUXUXUXq.}.w.k.y. XoX@X@X@X#XqX4X4X9X6X9XvXvXMXMXVXHXP.z H W o.3XwXz l i 7  XAXAXMXMXMXuXvXvX6X7X7X7X4X2XqXY.D.v.>XJ.T UXUXUXUX",
"UXUXUXUXI 1.2.k.f.F.+XoX@X@XqXqXqX4X7X9X9X9XuXMXMXAXVX6X+...9 $.nXMX%.9 @  .>XVXAXMXMXnXuX9X9X9X8X7X4X4X3X:XW.v.T.1Xv.UXUXUXUXUX",
"UXUXUXUXUXe.}.p.z.B.K.@XoX#X#XqX4X7X7X6X9XvXvXuXAXVXVXAX7X#X@X6XGXGX9X#X.X,XnXVXVXMXMXuXvXvX9X9X8X7X0X3X-XY.n.D.1XA.UXUXUXUXUXUX",
"UXUXUXUXUXUXi.}.y.z.V.$X>X#X#XqX4X4X7X8X9XvXnXnXNXVXZXZXZXGXJXLXLXLXJXZXZXZXCXAXAXMXMXMXnXnX9X9X8X8X4XqXE.D.n.>XOX{ UXUXUXUXUXUX",
"UXUXUXUXUXUXUXF.].U.z.P.OX#X#XqX4X4X7X6X9XvXnXMXMXNXVXZXGXIXKXLXLXLXJXJXZXZXCXAXMXMXnXnXuX9X9X9X8X4X;X*Xn.D.,X:X{ UXUXUXUXUXUXUX",
"UXUXUXUXUXUXUXx.F.{.H.Q.U.%X#X2X2X7X7X8X9X9XnXnXMXVXZXZXDXIXLXPXLXLXZXLXZXZXAXVXVXMXMXnXnX9X9X9X7X;X*X).).<XqXb.UXUXUXUXUXUXUXUX",
"UXUXUXUXUXUXUXUXx.H..XI.Q.^.%XqX4X7X5X8X9XvXnXnXMXMXVXZXZXIXLXLXLXLXLXLXZXZXZXMXVXMXMXnXnX9X9X8X;X_.).W.3XqXv.UXUXUXUXUXUXUXUXUX",
"UXUXUXUXUXUXUXUXUXx.OX+X#X~./.&X4X7X7X9X9XvXnXnXMXAXAXZXGXIXLXLXLXLXZXJXZXZXZXAXVXMXMXnXnX9X9XtXaX).E.<X-Xm.UXUXUXUXUXUXUXUXUXUX",
"UXUXUXUXUXUXUXUXUXUXUXP.>X#X/./.wX-X5X8X9XvXyXMXMXVXVXZXZXIXLXLXLXLXJXJXZXZXHXAXBXMXMXnXnXdXaX_.`.;XbX*Xm.UXUXUXUXUXUXUXUXUXUXUX",
"UXUXUXUXUXUXUXUXUXUXUXUX^.@X>X-XrXeXtX6X9X9XnXnXMXAXZXZXZXGXIXLXLXDXJXZXZXZXVXVXMXMXMXhXgXaX_.aX7X3XE.UXUXUXUXUXUXUXUXUXUXUXUXUX",
"UXUXUXUXUXUXUXUXUXUXUXUXUX(.&X<X4XtXeXfXfXyXnXnXMXAXAXZXGXIXIXLXLXJXJXJXZXZXZXAXAXkXhXgXiXiXdXcX6X`.UXUXUXUXUXUXUXUXUXUXUXUXUXUX",
"UXUXUXUXUXUXUXUXUXUXUXUXUXUXUXrX4X4X7XtXfXjXjXNXAXAXAXZXJXJXLXLXLXLXLXJXZXBXBXBXkXgXpXpXhXvXvXaXUXUXUXUXUXUXUXUXUXUXUXUXUXUXUXUX",
"UXUXUXUXUXUXUXUXUXUXUXUXUXUXUXUXsXtX8X8X9XyXjXBXBXBXSXSXDXLXLXLXLXLXDXJXDXFXxXlXkXkXMXnXuXdX`.UXUXUXUXUXUXUXUXUXUXUXUXUXUXUXUXUX",
"UXUXUXUXUXUXUXUXUXUXUXUXUXUXUXUXUXUXsXfXyXvXvXMXAXBXSXDXJXJXLXLXLXLXLXDXDXBXBXVXVXMXMXgXiXUXUXUXUXUXUXUXUXUXUXUXUXUXUXUXUXUXUXUX",
"UXUXUXUXUXUXUXUXUXUXUXUXUXUXUXUXUXUXUXUXUXlXjXMXAXMXCXAXZXDXLXLXLXLXLXJXZXZXZXBXkXzXUXUXUXUXUXUXUXUXUXUXUXUXUXUXUXUXUXUXUXUXUXUX",
"UXUXUXUXUXUXUXUXUXUXUXUXUXUXUXUXUXUXUXUXUXUXUXUXUXSXSXSXJXJXLXLXLXLXLXLXDXFXxXUXUXUXUXUXUXUXUXUXUXUXUXUXUXUXUXUXUXUXUXUXUXUXUXUX",
"UXUXUXUXUXUXUXUXUXUXUXUXUXUXUXUXUXUXUXUXUXUXUXUXUXUXUXUXUXUXUXUXUXUXUXUXUXUXUXUXUXUXUXUXUXUXUXUXUXUXUXUXUXUXUXUXUXUXUXUXUXUXUXUX",
"UXUXUXUXUXUXUXUXUXUXUXUXUXUXUXUXUXUXUXUXUXUXUXUXUXUXUXUXUXUXUXUXUXUXUXUXUXUXUXUXUXUXUXUXUXUXUXUXUXUXUXUXUXUXUXUXUXUXUXUXUXUXUXUX",
"UXUXUXUXUXUXUXUXUXUXUXUXUXUXUXUXUXUXUXUXUXUXUXUXUXUXUXUXUXUXUXUXUXUXUXUXUXUXUXUXUXUXUXUXUXUXUXUXUXUXUXUXUXUXUXUXUXUXUXUXUXUXUXUX"
};
